HIERARCHY
ROOT Hips
{
	OFFSET -3.958830 18.904000 13.208200
	CHANNELS 6 Xposition Yposition Zposition Zrotation Yrotation Xrotation 
	JOINT LHipJoint
	{
		OFFSET 0.000000 0.000000 0.000000
		CHANNELS 3 Zrotation Yrotation Xrotation
		JOINT LeftUpLeg
		{
			OFFSET 1.800000 -1.400000 0.085000
			CHANNELS 3 Zrotation Yrotation Xrotation
			JOINT LeftLeg
			{
				OFFSET 2.215000 -6.000000 0.000000
				CHANNELS 3 Zrotation Yrotation Xrotation
				JOINT LeftFoot
				{
					OFFSET 2.500000 -6.900000 0.000000
					CHANNELS 3 Zrotation Yrotation Xrotation
					JOINT LeftToeBase
					{
						OFFSET 0.200000 -0.500000 1.950000
						CHANNELS 3 Zrotation Yrotation Xrotation
						End Site
						{
							OFFSET 0.000000 0.000000 0.000000
						}
					}
				}
			}
		}
	}
	JOINT RHipJoint
	{
		OFFSET 0.000000 0.000000 0.000000
		CHANNELS 3 Zrotation Yrotation Xrotation
		JOINT RightUpLeg
		{
			OFFSET -1.800000 -1.400000 0.085000
			CHANNELS 3 Zrotation Yrotation Xrotation
			JOINT RightLeg
			{
				OFFSET -2.215000 -6.000000 0.000000
				CHANNELS 3 Zrotation Yrotation Xrotation
				JOINT RightFoot
				{
					OFFSET -2.500000 -6.900000 0.000000
					CHANNELS 3 Zrotation Yrotation Xrotation
					JOINT RightToeBase
					{
						OFFSET -0.200000 -0.500000 1.950000
						CHANNELS 3 Zrotation Yrotation Xrotation
						End Site
						{
							OFFSET 0.000000 0.000000 0.000000
						}
					}
				}
			}
		}
	}
	JOINT LowerBack
	{
		OFFSET 0.000000 0.000000 0.000000
		CHANNELS 3 Zrotation Yrotation Xrotation
		JOINT Spine
		{
			OFFSET -0.087000 1.940000 -0.288900
			CHANNELS 3 Zrotation Yrotation Xrotation
			JOINT Spine1
			{
				OFFSET 0.000000 1.950000 0.060000
				CHANNELS 3 Zrotation Yrotation Xrotation
				JOINT Neck
				{
					OFFSET 0.000000 0.000000 0.000000
					CHANNELS 3 Zrotation Yrotation Xrotation
					JOINT Neck1
					{
						OFFSET 0.000000 1.600000 0.340000
						CHANNELS 3 Zrotation Yrotation Xrotation
						JOINT Head
						{
							OFFSET 0.000000 1.667000 -0.240000
							CHANNELS 3 Zrotation Yrotation Xrotation
							End Site
							{
								OFFSET 0.000000 0.000000 0.000000
							}
						}
					}
				}
				JOINT LeftShoulder
				{
					OFFSET 0.000000 0.000000 0.000000
					CHANNELS 3 Zrotation Yrotation Xrotation
					JOINT LeftArm
					{
						OFFSET 2.700000 1.550000 -0.730000
						CHANNELS 3 Zrotation Yrotation Xrotation
						JOINT LeftForeArm
						{
							OFFSET 5.450000 0.000000 0.000000
							CHANNELS 3 Zrotation Yrotation Xrotation
							JOINT LeftHand
							{
								OFFSET 3.450000 0.000000 0.000000
								CHANNELS 3 Zrotation Yrotation Xrotation
								JOINT LeftHandIndex1
								{
									OFFSET 0.750000 0.000000 0.000000
									CHANNELS 3 Zrotation Yrotation Xrotation
									End Site
									{
										OFFSET 0.000000 0.000000 0.000000
									}
								}
							}
						}
					}
				}
				JOINT RightShoulder
				{
					OFFSET 0.000000 0.000000 0.000000
					CHANNELS 3 Zrotation Yrotation Xrotation
					JOINT RightArm
					{
						OFFSET -2.700000 1.550000 -0.730000
						CHANNELS 3 Zrotation Yrotation Xrotation
						JOINT RightForeArm
						{
							OFFSET -5.450000 0.000000 0.000000
							CHANNELS 3 Zrotation Yrotation Xrotation
							JOINT RightHand
							{
								OFFSET -3.450000 0.000000 0.000000
								CHANNELS 3 Zrotation Yrotation Xrotation
								JOINT RightHandIndex1
								{
									OFFSET -0.750000 0.000000 0.000000
									CHANNELS 3 Zrotation Yrotation Xrotation
									End Site
									{
										OFFSET 0.000000 0.000000 0.000000
									}
								}
							}
						}
					}
				}
			}
		}
	}
}
MOTION
Frames: 10
Frame Time: 0.016667
0.317980 17.647980 -1.766270 -5.185799 -3.577842 -17.310733 -15.008678 13.241247 3.088085 7.634467 1.269708 8.438940 -11.725995 7.925339 9.208922 0.365482 5.694671 2.753006 0.403770 0.106340 0.449580 18.437824 -10.979887 2.860340 -4.744487 -2.490723 7.164309 7.539689 -6.845122 12.225703 -0.825073 -4.911371 2.708578 -0.032340 -0.090670 0.180840 -4.005171 -1.598317 -7.601303 16.908556 -2.062796 18.180962 -5.207315 -0.843386 22.082910 3.378008 -4.881220 -14.469122 -12.596419 2.357586 42.412462 -1.680750 -0.249920 -15.075080 -8.090238 -15.881968 8.866601 -13.980097 -2.780802 -6.604293 113.339639 -41.488624 -68.297095 -3.491991 2.708826 0.550610 -0.180600 0.186090 0.053440 2.345293 19.836704 11.156941 21.447138 4.107801 -14.996907 -109.155313 34.471794 -59.369753 2.179074 -1.580272 -0.016840 0.058470 -0.109130 -0.182690 
0.329470 17.638400 -1.736340 -5.239369 -3.218739 -17.412206 -14.973036 13.100777 3.044667 7.525649 1.332573 8.970390 -11.602540 7.880039 8.947047 0.343078 5.718146 2.750461 0.396620 0.115260 0.435090 18.497251 -11.034868 2.849999 -5.039745 -2.582770 7.528005 7.856670 -6.951286 11.973161 -0.823071 -5.023977 2.683710 -0.005430 -0.058380 0.173450 -4.150618 -1.278105 -7.506506 17.481896 -1.893191 16.460702 -5.558392 -1.059514 23.281560 3.508736 -4.458879 -14.280713 -11.501938 2.242587 42.290077 -2.678860 0.160930 -13.844370 -7.885975 -17.001259 9.031207 -13.976357 -4.552040 -6.937446 112.895561 -38.131301 -63.979524 -3.540820 2.741028 0.516640 -0.138110 0.156930 0.055790 1.982981 20.415127 11.063501 21.921477 5.978305 -15.289610 -109.232032 30.530177 -55.284481 2.164450 -1.685603 -0.033120 0.080450 -0.096560 -0.181570 
0.331770 17.615450 -1.686160 -5.078273 -2.244799 -17.940722 -14.996435 12.986860 2.981560 7.171449 1.494080 10.018801 -10.942684 7.786255 8.857667 0.313361 5.773139 2.744036 0.404080 0.139300 0.431200 18.513143 -11.034510 2.815487 -5.555233 -2.698216 8.473055 8.335110 -7.182413 11.909063 -0.840480 -5.227188 2.623208 0.037610 -0.011500 0.179820 -4.158862 -1.094076 -7.364034 16.803091 -1.311372 14.239461 -5.061111 -1.243302 25.248135 3.452317 -3.628908 -13.916846 -9.665699 1.685640 41.636974 -3.559160 0.359990 -13.024680 -7.412250 -19.092281 9.148237 -13.472581 -8.560122 -7.559218 112.395753 -31.738848 -56.204560 -3.616757 2.814607 0.476340 -0.080850 0.125010 0.064840 1.759161 21.604725 11.013596 22.625022 8.014302 -16.112843 -111.047185 23.702757 -49.638381 2.142973 -1.861994 -0.050140 0.108930 -0.086580 -0.178890 
0.320990 17.576800 -1.639390 -4.603671 -1.518744 -18.745241 -15.042241 12.878770 2.917684 6.763486 1.719484 11.186812 -10.675544 7.932075 9.396622 0.284283 5.963835 2.714451 0.414490 0.154100 0.428900 18.507738 -11.032489 2.762660 -6.223289 -2.756039 9.626070 8.680930 -7.451237 12.188661 -0.852689 -5.485136 2.549661 0.096240 0.082020 0.190600 -4.098623 -0.935555 -7.193754 15.127771 -0.640718 12.230789 -4.357859 -1.174675 27.111759 3.192644 -2.603622 -13.256952 -7.318925 1.049108 40.525856 -3.641060 0.243320 -11.574340 -7.671352 -21.202585 8.749930 -11.594294 -12.800986 -8.014037 112.917389 -24.757689 -48.042228 -3.724664 2.880779 0.425430 0.006640 0.068070 0.089940 2.685599 22.875828 10.943465 21.818424 9.915028 -16.489245 -113.806543 17.612675 -44.864725 2.099385 -2.010728 -0.090700 0.162720 -0.075870 -0.173940 
0.321480 17.541450 -1.602340 -4.609364 -1.182642 -20.307175 -15.051226 12.712508 2.853608 7.089896 1.956123 13.211245 -10.735092 8.199234 9.723837 0.284888 6.210267 2.642246 0.478190 0.250320 0.468350 18.545266 -11.011996 2.750469 -6.742266 -3.024352 11.767762 9.266186 -7.764750 11.985858 -0.937495 -5.777102 2.447052 0.186370 0.104960 0.183210 -4.148266 -0.706490 -7.036561 14.811342 -0.360102 11.175888 -4.342844 -1.399815 30.011557 3.293653 -2.155477 -12.766741 -6.296689 0.600764 40.199630 -3.413250 -0.271340 -13.476180 -7.510715 -24.243107 8.634995 -9.558603 -16.315149 -9.619809 114.578617 -16.739143 -40.021804 -3.776140 2.951176 0.411660 0.026560 0.070840 0.109220 2.644483 25.368026 10.973239 20.444767 12.114986 -18.094798 -116.040592 10.022698 -37.734535 2.092566 -2.163241 -0.106440 0.228360 -0.095480 -0.170080 
0.318790 17.508730 -1.573680 -4.502299 -0.760120 -21.873865 -15.074950 12.683091 2.814368 7.022515 2.131505 14.912614 -10.002791 8.334252 10.694998 0.253294 6.392712 2.571990 0.569800 0.364320 0.522530 18.545499 -10.961287 2.749152 -7.096265 -3.223393 13.837434 9.223118 -7.923797 11.939537 -1.020232 -6.007113 2.355227 0.284000 0.100280 0.190950 -4.121269 -0.748575 -6.943067 14.394793 -0.394209 10.708613 -4.649341 -1.761977 32.313054 3.527755 -2.391985 -12.673150 -6.851378 0.864242 40.300927 -3.784120 -0.534300 -15.439780 -8.278952 -27.947513 8.674046 -6.308382 -17.991731 -11.786693 116.627957 -8.946370 -31.528797 -3.837572 3.048907 0.416810 0.033280 0.087450 0.131310 3.132953 28.998930 11.111759 17.626642 13.457726 -20.019673 -119.623500 1.505582 -28.700524 2.096716 -2.378016 -0.109220 0.269840 -0.122000 -0.175990 
0.326690 17.467540 -1.545620 -4.219062 -0.574030 -23.289330 -15.135071 12.732761 2.835577 6.725364 2.403876 16.689446 -9.281737 8.394290 11.245723 0.203740 6.599246 2.488642 0.609920 0.396240 0.546510 18.498151 -10.856342 2.728150 -7.655330 -3.284450 15.719010 9.173770 -8.119888 12.161186 -1.084419 -6.180234 2.270896 0.335940 0.108640 0.195070 -3.973236 -1.019571 -6.905997 13.836879 -0.101796 10.206907 -4.444903 -2.040438 34.420119 3.758217 -3.099315 -13.371865 -8.834138 1.232039 41.572951 -3.052780 -1.681630 -17.611080 -9.790435 -32.347943 9.185203 -3.006379 -18.019693 -13.943380 119.072620 -3.004588 -25.124057 -3.921675 3.092649 0.474350 0.016590 0.103460 0.128320 4.301198 33.763142 11.622257 12.703102 13.184746 -22.108506 -123.440963 -6.352744 -18.253932 2.157932 -2.557683 -0.141270 0.332200 -0.097040 -0.191200 
0.329600 17.424460 -1.518830 -3.832989 -0.558416 -24.145522 -15.258259 12.896473 2.886408 6.750821 2.606402 17.737862 -9.299033 8.621915 11.839462 0.240982 6.756372 2.407256 0.650070 0.447150 0.549270 18.374055 -10.680791 2.714444 -8.014377 -3.315331 17.015331 9.157946 -8.201598 12.150667 -1.130964 -6.243459 2.232839 0.356140 0.077080 0.206970 -3.621789 -1.557278 -6.954949 12.584017 0.180310 9.946218 -3.863690 -2.098971 35.487652 4.099109 -3.688974 -14.467120 -10.982948 1.881691 43.352866 -1.898280 -2.495450 -19.129470 -12.291031 -36.142890 9.689103 0.112761 -17.478133 -15.291697 122.022433 1.068435 -20.021469 -3.976144 3.177310 0.505840 -0.021730 0.139940 0.131010 6.116021 37.983457 12.299069 7.229686 11.702335 -23.272700 -126.447346 -11.890162 -8.759834 2.285128 -2.723193 -0.114920 0.330780 -0.097850 -0.183100 
0.326370 17.384150 -1.496950 -3.621957 -0.847328 -24.837812 -15.388024 13.089950 2.921160 7.112853 2.709885 18.375208 -9.482991 8.992103 12.916192 0.275961 6.953286 2.328828 0.646900 0.432330 0.543730 18.235892 -10.544552 2.684831 -8.102012 -3.280948 17.747385 8.899397 -8.318641 12.964564 -1.146900 -6.273775 2.213741 0.341850 0.056990 0.205200 -3.236543 -2.050707 -7.005693 11.494087 0.478417 9.820929 -3.266797 -2.186812 36.354050 4.582685 -4.024352 -15.743609 -12.677642 2.700076 45.171441 -1.363580 -2.752820 -19.465160 -14.027866 -38.960506 10.403133 2.075871 -16.120613 -16.241463 123.832874 3.027035 -17.628023 -4.034007 3.212272 0.547380 -0.051340 0.157240 0.123460 6.983142 41.169395 13.068928 3.855567 10.381712 -23.902286 -128.384820 -15.023793 -3.255563 2.387679 -2.813055 -0.118540 0.328430 -0.086420 -0.191210 
0.309350 17.357310 -1.485100 -3.471485 -0.836794 -25.201595 -15.557528 13.296813 2.936436 7.435571 2.752042 18.536583 -9.346941 9.184944 13.705300 0.345852 7.024207 2.282068 0.662500 0.441340 0.560390 18.064883 -10.391896 2.652954 -7.807370 -3.185533 17.954891 8.658742 -8.373467 13.910193 -1.152137 -6.256429 2.198530 0.319100 0.006270 0.223840 -2.747451 -2.571273 -7.040487 9.751656 0.875762 9.819708 -1.991612 -2.111265 36.632163 4.624474 -3.934379 -16.388953 -13.361354 3.028213 46.745646 -0.846040 -2.889190 -19.137020 -15.108734 -40.122101 10.695884 2.901238 -15.774584 -16.576587 123.956552 2.995863 -17.276663 -4.042941 3.257342 0.547800 -0.084600 0.184750 0.111720 7.976972 42.574312 13.665868 2.400977 9.325824 -23.953277 -128.864119 -15.061486 -2.965797 2.450729 -2.847268 -0.071760 0.269330 -0.101860 -0.188080 
